<svg id="Layer_1" data-name="Layer 1" xmlns="http://www.w3.org/2000/svg" viewBox="0 0 64 64"><defs><style>.cls-1{fill:#d9ebf4;}.cls-2{fill:#c6e2f4;}.cls-11,.cls-3{fill:none;stroke-linecap:round;stroke-linejoin:round;}.cls-3{stroke:#041256;stroke-width:2px;}.cls-4{fill:#b7cfe2;}.cls-5{fill:#80f9ea;}.cls-6{fill:#d8e7ef;}.cls-7{fill:#fff;}.cls-8{fill:#1898ad;}.cls-9{fill:#23b7b3;}.cls-10{fill:#3cd3cc;}.cls-11{stroke:#f7f7f9;}.cls-12{fill:#89afc9;}.cls-13{fill:#041256;}.cls-14{fill:#d16f0d;}.cls-15{fill:#ad5c12;}.cls-16{fill:#ffa022;}.cls-17{fill:#91e2e2;}.cls-18{fill:#ffd77d;}.cls-19{fill:#ed8c18;}.cls-20{fill:#e28014;}</style></defs><title>calendar, alert, notification, date, appointment</title><path class="cls-1" d="M24.52,13.29h2.43a.76.76,0,0,0,0-1.52H25.73a.46.46,0,0,1-.46-.46.46.46,0,0,0-.46-.46H22.39a.76.76,0,1,0,0,1.52h1.21a.46.46,0,0,1,.46.46A.46.46,0,0,0,24.52,13.29Z"/><path class="cls-1" d="M15.55,12.48H14.14a.26.26,0,0,0-.26.26.26.26,0,0,1-.26.26h-.7a.44.44,0,1,0,0,.88h1.41a.26.26,0,0,0,.26-.26.26.26,0,0,1,.26-.26h.7a.44.44,0,0,0,0-.88Z"/><path class="cls-1" d="M32.26,9.78H30.86a.26.26,0,0,0-.26.26.26.26,0,0,1-.26.26h-.7a.44.44,0,0,0,0,.88H31a.26.26,0,0,0,.26-.26.26.26,0,0,1,.26-.26h.7a.44.44,0,1,0,0-.88Z"/><circle class="cls-1" cx="17.67" cy="19.39" r="0.63"/><circle class="cls-1" cx="17.67" cy="14.34" r="0.61"/><circle class="cls-1" cx="20.71" cy="15.59" r="0.98"/><circle class="cls-1" cx="28.3" cy="9.97" r="0.32"/><circle class="cls-1" cx="11.3" cy="15.59" r="0.39"/><circle class="cls-1" cx="14.23" cy="16.8" r="1.02"/><circle class="cls-1" cx="10.26" cy="12.83" r="0.35"/><path class="cls-1" d="M46.55,8.19h0a.5.5,0,0,1,.5-.5h2.67a.83.83,0,0,1,.83.83h0a.83.83,0,0,1-.83.83H48.38a.5.5,0,0,0-.5.5h0a.5.5,0,0,1-.5.5H44.71a.83.83,0,0,1-.83-.83h0a.83.83,0,0,1,.83-.83H46A.5.5,0,0,0,46.55,8.19Z"/><path class="cls-1" d="M51.38,12h0a.29.29,0,0,0-.29-.29H49.54a.48.48,0,0,0-.48.48h0a.48.48,0,0,0,.48.48h.77a.29.29,0,0,1,.29.29h0a.29.29,0,0,0,.29.29h1.55a.48.48,0,0,0,.48-.48h0a.48.48,0,0,0-.48-.48h-.77A.29.29,0,0,1,51.38,12Z"/><circle class="cls-1" cx="48.09" cy="19.87" r="0.7"/><circle class="cls-1" cx="47.21" cy="13.71" r="0.67"/><circle class="cls-1" cx="43.88" cy="15.08" r="1.08"/><circle class="cls-1" cx="43.23" cy="6.71" r="0.35"/><circle class="cls-1" cx="54.21" cy="15.08" r="0.43"/><circle class="cls-1" cx="51" cy="16.42" r="1.12"/><circle class="cls-1" cx="55.35" cy="12.05" r="0.39"/><path class="cls-2" d="M3,57.64V14.84c0-.77.4-1.4.89-1.4h.93c.49,0,.89.63.89,1.4V18.4c0,.77.4,1.4.89,1.4h3c.49,0,.89.63.89,1.4V37.48c0,.77.4,1.4.89,1.4h1.85c.49,0,.89.63.89,1.4V50.53c0,.77.4,1.4.89,1.4h.9c.49,0,.89-.63.89-1.4V48.75c0-.77.4-1.4.89-1.4h.81c.49,0,.89-.63.89-1.4v-2.4c0-.77.4-1.4.89-1.4H25.1c.49,0,.89-.63.89-1.4V39.32c0-.77.4-1.4.89-1.4h15.4a.77.77,0,0,1,.63.41l4.14,6.49a.78.78,0,0,0,.63.41h1.24c.49,0,.89.63.89,1.4v4.72c0,.77.4,1.4.89,1.4h.51c.49,0,.89-.63.89-1.4v-.81c0-.77.4-1.4.89-1.4h.65c.49,0,.89-.63.89-1.4s.4-1.4.89-1.4h4.63c.49,0,.89.63.89,1.4v9.89Z"/><line class="cls-3" x1="3" y1="57.64" x2="61" y2="57.64"/><rect class="cls-4" x="9.82" y="16.26" width="44.18" height="40.83" rx="6.07" ry="6.07"/><path class="cls-5" d="M49.34,17.33a8.85,8.85,0,0,1,2.52,6.19V46.58A8.88,8.88,0,0,1,43,55.47H16.57a8.84,8.84,0,0,1-4.23-1.07,8.85,8.85,0,0,0,6.36,2.69H45.12A8.88,8.88,0,0,0,54,48.21V25.14A8.88,8.88,0,0,0,49.34,17.33Z"/><path class="cls-6" d="M13.75,51.94V28.88A8.88,8.88,0,0,1,22.63,20H49.05a8.83,8.83,0,0,1,3.87.9,8.88,8.88,0,0,0-7.8-4.63H18.7a8.88,8.88,0,0,0-8.88,8.88V48.21a8.87,8.87,0,0,0,5,8A8.84,8.84,0,0,1,13.75,51.94Z"/><path class="cls-7" d="M12.13,50.43V27.36A8.88,8.88,0,0,1,21,18.48H47.43A8.82,8.82,0,0,1,52.33,20a8.86,8.86,0,0,0-7.22-3.71H18.7a8.88,8.88,0,0,0-8.88,8.88V48.21a8.85,8.85,0,0,0,4,7.42A8.79,8.79,0,0,1,12.13,50.43Z"/><path class="cls-8" d="M45.12,16.26H18.7a8.88,8.88,0,0,0-8.88,8.88v2.78H54V25.14A8.88,8.88,0,0,0,45.12,16.26Z"/><path class="cls-5" d="M53.92,24c0-.1,0-.21,0-.31q-.07-.42-.17-.82c0-.09,0-.18-.07-.26a8.79,8.79,0,0,0-.36-1l-.09-.18q-.18-.4-.41-.78l-.16-.26q-.24-.37-.51-.72L52,19.54a9,9,0,0,0-.71-.77l-.19-.18q-.3-.28-.63-.53l-.23-.17a8.92,8.92,0,0,0-.9-.57h0a8.85,8.85,0,0,1,2.52,6.19v4.4H54V25.14A8.91,8.91,0,0,0,53.92,24Z"/><path class="cls-9" d="M22.63,20H49.05a8.83,8.83,0,0,1,3.87.9,8.86,8.86,0,0,0-.57-.89l-.17-.22q-.26-.34-.54-.65L51.48,19a9,9,0,0,0-.78-.71l-.14-.11q-.35-.27-.72-.51l-.25-.15a8.83,8.83,0,0,0-.79-.41L48.63,17a8.82,8.82,0,0,0-1-.36l-.27-.07q-.4-.11-.82-.17l-.31,0a8.93,8.93,0,0,0-1.11-.08H18.7a8.88,8.88,0,0,0-8.88,8.88v2.78h4A8.88,8.88,0,0,1,22.63,20Z"/><path class="cls-10" d="M12.13,27.36A8.88,8.88,0,0,1,21,18.48H47.43A8.82,8.82,0,0,1,52.33,20l0,0c-.11-.16-.24-.3-.37-.45s-.19-.23-.29-.34h0c-.13-.15-.28-.28-.43-.42l-.37-.34c-.15-.12-.3-.24-.45-.35l-.45-.31-.46-.28-.52-.27-.47-.21-.61-.22-.41-.13-.09,0c-.22-.06-.45-.1-.68-.14l-.24,0-.21,0a8.93,8.93,0,0,0-1.11-.08H18.7a8.88,8.88,0,0,0-8.88,8.88v2.78h2.31Z"/><line class="cls-11" x1="9.82" y1="27.93" x2="54" y2="27.93"/><rect class="cls-3" x="9.82" y="16.26" width="44.18" height="40.83" rx="6.07" ry="6.07"/><circle class="cls-8" cx="18.99" cy="34.26" r="1.46"/><circle class="cls-12" cx="25.45" cy="34.26" r="1.46"/><circle class="cls-13" cx="31.9" cy="41.48" r="3.04"/><circle class="cls-12" cx="31.91" cy="34.26" r="1.46"/><circle class="cls-12" cx="38.37" cy="34.26" r="1.46"/><circle class="cls-12" cx="44.83" cy="34.26" r="1.46"/><circle class="cls-8" cx="18.99" cy="41.42" r="1.46"/><circle class="cls-12" cx="25.45" cy="41.42" r="1.46"/><circle class="cls-4" cx="31.91" cy="41.42" r="1.46"/><circle class="cls-12" cx="38.37" cy="41.42" r="1.46"/><circle class="cls-12" cx="44.83" cy="41.42" r="1.46"/><circle class="cls-8" cx="18.99" cy="48.58" r="1.46"/><circle class="cls-12" cx="25.45" cy="48.58" r="1.46"/><circle class="cls-12" cx="31.91" cy="48.58" r="1.46"/><circle class="cls-12" cx="38.37" cy="48.58" r="1.46"/><circle class="cls-12" cx="44.83" cy="48.58" r="1.46"/><line class="cls-3" x1="21.12" y1="13.62" x2="21.12" y2="22.09"/><circle class="cls-3" cx="21.12" cy="22.44" r="0.84"/><line class="cls-3" x1="42.7" y1="13.62" x2="42.7" y2="22.09"/><circle class="cls-3" cx="42.7" cy="22.44" r="0.84"/><circle class="cls-13" cx="52.86" cy="12.72" r="1.48"/><circle class="cls-14" cx="52.86" cy="30.22" r="2.55"/><path class="cls-15" d="M50.36,30.69a2.55,2.55,0,1,1,5,0c-.81,0-1.63.08-2.5.08S51.17,30.73,50.36,30.69Z"/><circle class="cls-3" cx="52.86" cy="30.22" r="2.55"/><path class="cls-16" d="M47.52,22.15V18.83a5.49,5.49,0,0,1,5.18-5.56,5.34,5.34,0,0,1,5.5,5.34v3.54a5.78,5.78,0,0,0,2.25,4.75.93.93,0,0,1,.48.71c0,1.15-3.61,2.08-8.07,2.08s-8.07-.93-8.07-2.08a.93.93,0,0,1,.48-.71A5.78,5.78,0,0,0,47.52,22.15Z"/><path class="cls-17" d="M59.46,28a.93.93,0,0,0-.48-.71,5.78,5.78,0,0,1-2.25-4.75V19a5.34,5.34,0,0,0-5.5-5.34l-.37,0a5.06,5.06,0,0,1,1.85-.42,5.34,5.34,0,0,1,5.5,5.34v3.54a5.78,5.78,0,0,0,2.25,4.75.93.93,0,0,1,.48.71c0,.67-1.23,1.26-3.13,1.64C58.83,28.9,59.46,28.46,59.46,28Z"/><path class="cls-18" d="M45.27,26.9a5.78,5.78,0,0,0,2.25-4.75V18.83a5.49,5.49,0,0,1,5.18-5.56,5.32,5.32,0,0,1,3.57,1.23A5.32,5.32,0,0,0,53.94,14a5.49,5.49,0,0,0-5.18,5.56v3.31a5.78,5.78,0,0,1-2.25,4.75.93.93,0,0,0-.48.71.67.67,0,0,0,.15.4c-.88-.33-1.4-.74-1.4-1.17A.93.93,0,0,1,45.27,26.9Z"/><path class="cls-19" d="M48.14,29.29a1,1,0,0,1-.05-.24,1.18,1.18,0,0,1,.28-.74,8.44,8.44,0,0,0,1.33-5V19.87c0-3.06,1.33-5.73,3.06-5.82S56,16.49,56,19.63v3.7a8.44,8.44,0,0,0,1.33,5,1.18,1.18,0,0,1,.28.74,1,1,0,0,1-.05.24,28.37,28.37,0,0,1-9.45,0Z"/><path class="cls-16" d="M52.76,14a1.83,1.83,0,0,1,.55.06,5.13,5.13,0,0,0-2.16.88A2.31,2.31,0,0,1,52.76,14Z"/><path class="cls-20" d="M51.72,20.6a9.73,9.73,0,0,1,1.46-5.52.94.94,0,0,1,1.47,0A7.45,7.45,0,0,1,56,19.63v3.7a8.44,8.44,0,0,0,1.33,5,1.18,1.18,0,0,1,.28.74,1,1,0,0,1-.05.24,26.34,26.34,0,0,1-4.72.4c-.75,0-1.47,0-2.16-.08a11.51,11.51,0,0,0,1-5.1Z"/><path class="cls-14" d="M55.81,28.72a4,4,0,0,1-.27-.4,8.72,8.72,0,0,1-.67-4.92l.41-3.68A7.45,7.45,0,0,0,54.43,15a.89.89,0,0,0-.27-.26.88.88,0,0,1,.5.29A7.45,7.45,0,0,1,56,19.63v3.7a8.44,8.44,0,0,0,1.33,5,1.18,1.18,0,0,1,.28.74,1,1,0,0,1-.05.24c-.46.09-1,.16-1.5.22a.34.34,0,0,0,0,0A1.19,1.19,0,0,0,55.81,28.72Z"/><path class="cls-3" d="M47.52,22.15V18.83a5.49,5.49,0,0,1,5.18-5.56,5.34,5.34,0,0,1,5.5,5.34v3.54a5.78,5.78,0,0,0,2.25,4.75.93.93,0,0,1,.48.71c0,1.15-3.61,2.08-8.07,2.08s-8.07-.93-8.07-2.08a.93.93,0,0,1,.48-.71A5.78,5.78,0,0,0,47.52,22.15Z"/></svg>