<?xml version="1.0"?>
<svg xmlns="http://www.w3.org/2000/svg" viewBox="0 0 512 512" width="512" height="512"><g id="outline"><path d="M462.233,366.774,433.86,232H464a8,8,0,0,0,8-8V184a8,8,0,0,0-8-8H430.938l-7.019-49.132a8,8,0,0,0-5.979-6.629L392,113.754V104a8,8,0,0,0-16,0v32a8,8,0,0,0,16,0v-5.754l16.841,4.21L414.776,176H400v-7.645A24.383,24.383,0,0,0,375.644,144H316.53l-10.756-17.927,28.911,4.819A8.1,8.1,0,0,0,336,131a8,8,0,0,0,8-8V75a56,56,0,0,0-112,0v32a8,8,0,0,0,5.915,7.722,42.477,42.477,0,0,0-12.78,20.186c-.016.057-.032.114-.048.173l-24.827,94.9A8,8,0,0,0,208,240v2a29.808,29.808,0,0,0,3.479,14H192V152a8,8,0,0,0-8-8H120V24a8,8,0,0,0-8-8H40a8,8,0,0,0-8,8V72a8,8,0,0,0,8,8h64v64H24a8,8,0,0,0-8,8V296a8,8,0,0,0,8,8h8v16a8,8,0,0,0,3.562,6.656L51.694,337.41A142.131,142.131,0,0,0,16,432a8,8,0,0,0,8,8H80.518a63.982,63.982,0,0,0,126.964,0H352.518a63.982,63.982,0,0,0,126.964,0H488a8,8,0,0,0,8-8A79.937,79.937,0,0,0,462.233,366.774ZM448,192h8v24h-8Zm-49.376,0H432v24H396a12.156,12.156,0,0,1-1.98-.174,23.935,23.935,0,0,0,4.6-23.826Zm.032,76.438A8,8,0,0,0,400,264V232h17.509l26.315,125A79.844,79.844,0,0,0,384,358.7V316.845A86.994,86.994,0,0,1,398.656,268.438ZM360,160h15.644A8.365,8.365,0,0,1,384,168.355V176H360Zm24,40a8,8,0,1,1-8-8A8.009,8.009,0,0,1,384,200Zm-30.624-8A23.992,23.992,0,0,0,376,224c.134,0,.267-.008.4-.01a28,28,0,0,0,7.6,5.324V261.63a102.92,102.92,0,0,0-16,55.215v51.2a80.845,80.845,0,0,0-8.069,6.964,8,8,0,0,0-2.274-4.664L336,348.686V262a38.043,38.043,0,0,0-38-38h-7.7l8.179-32h54.895ZM288,256H238a14.015,14.015,0,0,1-14-14v-2h74a22.025,22.025,0,0,1,22,22v82H296V264A8,8,0,0,0,288,256Zm24-96h32v16H292.643l-20.235-35.411h0a10.04,10.04,0,0,1,4.227-13.961,10.089,10.089,0,0,1,13.1,3.814l15.4,25.675A8,8,0,0,0,312,160Zm16-85V87.9L296,77.234V67h31.181A39.685,39.685,0,0,1,328,75Zm-80,0a40,40,0,0,1,72-24H288a8,8,0,0,0-8,8V83a8,8,0,0,0,5.47,7.59L328,104.766v8.791l-80-13.334Zm-7.458,64.224a26.748,26.748,0,0,1,19.186-18.436,25.97,25.97,0,0,0-1.212,27.738l22.538,39.443a7.989,7.989,0,0,0,1.471,1.847L273.788,224H218.362ZM192,272h88v16H192ZM48,64V32h56V64ZM32,160H176v16H32Zm0,128V192H176v96Zm16,27.719V304H84.686L62.981,325.706ZM144,480a48.069,48.069,0,0,1-47.321-40h16.334a32,32,0,0,0,61.974,0h16.334A48.069,48.069,0,0,1,144,480Zm-13.835-40h27.67a15.963,15.963,0,0,1-27.67,0ZM184,424H64.36A88.12,88.12,0,0,1,152,344h32a40,40,0,0,1,0,80Zm152.4,0H223.138A55.963,55.963,0,0,0,184,328H152A104.139,104.139,0,0,0,48.305,424H32.246a126.255,126.255,0,0,1,37.009-81.94L107.314,304H280v20l-14.8,11.1A43.206,43.206,0,0,0,248,369.5a42.725,42.725,0,0,0,12.6,30.408l5.748,5.748A8,8,0,0,0,272,408h67.683A79.419,79.419,0,0,0,336.4,424ZM280,344v48h-4.686l-3.405-3.4A26.83,26.83,0,0,1,264,369.5a27.133,27.133,0,0,1,10.8-21.6Zm64,48H296V360h28.686L344,379.313Zm72,88a48.069,48.069,0,0,1-47.321-40h16.334a32,32,0,0,0,61.974,0h16.334A48.069,48.069,0,0,1,416,480Zm-13.835-40h27.67a15.963,15.963,0,0,1-27.67,0ZM352.5,424a64,64,0,0,1,127,0Z"/><path d="M128,360a8,8,0,0,0-8,8v24a8,8,0,0,0,16,0V368A8,8,0,0,0,128,360Z"/><path d="M160,360a8,8,0,0,0-8,8v24a8,8,0,0,0,16,0V368A8,8,0,0,0,160,360Z"/><path d="M192,360a8,8,0,0,0-8,8v24a8,8,0,0,0,16,0V368A8,8,0,0,0,192,360Z"/><path d="M144,248V224a8,8,0,0,0-16,0v16H80V224a8,8,0,0,0-16,0v24a8,8,0,0,0,8,8h64A8,8,0,0,0,144,248Z"/></g></svg>
