<?xml version="1.0" encoding="utf-8"?>
<!-- Svg Vector Icons : http://www.onlinewebfonts.com/icon -->
<!DOCTYPE svg PUBLIC "-//W3C//DTD SVG 1.1//EN" "http://www.w3.org/Graphics/SVG/1.1/DTD/svg11.dtd">
<svg version="1.1" xmlns="http://www.w3.org/2000/svg" xmlns:xlink="http://www.w3.org/1999/xlink" x="0px" y="0px" viewBox="0 0 1000 1000" enable-background="new 0 0 1000 1000" xml:space="preserve">
<metadata> Svg Vector Icons : http://www.onlinewebfonts.com/icon </metadata>
<g><g><g><path d="M744.5,792.4c-9.8,9.8-20.1,19.2-30.7,27.8c-6.1,5-7,13.9-2,20.1c2.8,3.5,6.9,5.2,11.1,5.2c3.1,0,6.3-1,9-3.2c11.3-9.3,22.3-19.2,32.8-29.6c5.5-5.6,5.5-14.6,0-20.2C759.1,786.8,750.1,786.8,744.5,792.4z"/><path d="M132.8,762.8c-5-6.1-14-7-20.1-1.9c-6.1,5-7,14-1.9,20.1c18.3,22.2,38.9,42.8,61.2,61c2.7,2.2,5.9,3.3,9.1,3.3c4.1,0,8.2-1.8,11-5.3c5-6,4.1-15-2-20C169.3,802.9,150,783.7,132.8,762.8z"/><path d="M332.1,895.9c-25.7-7.8-50.9-18.2-74.7-31c-7-3.7-15.6-1-19.3,5.8c-3.7,7-1.1,15.6,5.9,19.3c25.5,13.6,52.4,24.8,79.9,33.1c1.4,0.5,2.7,0.7,4.1,0.7c6.1,0,11.8-4,13.6-10.2C343.9,906.1,339.7,898.2,332.1,895.9z"/><path d="M56.5,621.1c-2.3-7.5-10.3-11.7-17.8-9.4c-7.5,2.2-11.8,10.3-9.5,17.8c8.4,27.6,19.6,54.4,33.3,79.8c2.5,4.8,7.5,7.5,12.6,7.5c2.3,0,4.6-0.6,6.7-1.7c6.9-3.7,9.5-12.5,5.8-19.3C74.9,671.9,64.4,646.8,56.5,621.1z"/><path d="M646.5,865c-23.8,12.7-49,23.1-74.7,30.9c-7.5,2.2-11.8,10.2-9.5,17.8c1.8,6.2,7.5,10.1,13.7,10.1c1.3,0,2.7-0.2,4.1-0.6c27.6-8.3,54.5-19.4,80-33c6.9-3.8,9.5-12.4,5.8-19.3C662.1,864,653.4,861.3,646.5,865z"/><path d="M492.4,911.5c-26.4,2.6-53.9,2.6-80.9,0c-7.9-0.4-14.8,5-15.6,12.9c-0.8,7.8,5,14.8,12.8,15.5c14.4,1.4,28.9,2.1,43.3,2.1c14.5,0,29-0.7,43.1-2.1c7.8-0.8,13.6-7.8,12.8-15.6C507.2,916.6,500.4,911.2,492.4,911.5z"/><path d="M985.8,413.5c-5.6-5.5-14.6-5.5-20.2,0l-72.3,72.2C885.7,248.6,691,57.9,452.1,57.9C208.3,57.9,10,256.2,10,500c0,14.7,0.7,29.6,2.2,44.2c0.7,7.4,6.9,12.8,14.2,12.8c0.5,0,1-0.1,1.4-0.1c7.8-0.8,13.6-7.8,12.8-15.6c-1.3-13.7-2-27.6-2-41.4c0-228,185.5-413.6,413.5-413.6c226.8,0,411.4,183.7,413.3,410.1l-83-83.1c-5.6-5.5-14.6-5.5-20.1,0c-5.6,5.6-5.6,14.6,0,20.2L874,545.5l111.8-111.8C991.4,428,991.4,419,985.8,413.5z"/></g></g><g></g><g></g><g></g><g></g><g></g><g></g><g></g><g></g><g></g><g></g><g></g><g></g><g></g><g></g><g></g></g>
</svg>